<?xml version="1.0" encoding="utf-8"?>
<!-- Generator: Adobe Illustrator 22.0.1, SVG Export Plug-In . SVG Version: 6.00 Build 0)  -->
<svg version="1.1" xmlns="http://www.w3.org/2000/svg" xmlns:xlink="http://www.w3.org/1999/xlink" x="0px" y="0px"
	 viewBox="0 0 291.3 160.9" style="enable-background:new 0 0 291.3 160.9;" xml:space="preserve">
<style type="text/css">
	.st0{fill:#0D549D;stroke:#0D549D;stroke-width:3.719;stroke-miterlimit:10;}
	.st1{fill:none;stroke:#0D549D;stroke-width:3.719;stroke-miterlimit:10;}
	.st2{fill:none;stroke:url(#SVGID_1_);stroke-width:3.719;stroke-miterlimit:10;}
	.st3{fill:none;stroke:url(#SVGID_2_);stroke-width:3.719;stroke-miterlimit:10;}
	.st4{fill:none;stroke:url(#SVGID_3_);stroke-width:3.719;stroke-miterlimit:10;}
	.st5{fill:none;stroke:url(#SVGID_4_);stroke-width:3.719;stroke-miterlimit:10;}
	.st6{fill:none;stroke:url(#SVGID_5_);stroke-width:3.719;stroke-miterlimit:10;}
	.st7{fill:#FFFFFF;stroke:#0D549D;stroke-width:3.719;stroke-miterlimit:10;}
	.st8{fill:none;stroke:#131732;stroke-width:3.719;stroke-miterlimit:10;}
	.st9{fill:none;stroke:#131732;stroke-width:3.719;stroke-linecap:round;stroke-miterlimit:10;}
	.st10{fill:none;}
	.st11{fill:#FFFFFF;}
	.st12{stroke:#000000;stroke-width:3.719;stroke-miterlimit:10;}
	.st13{fill:none;stroke:#000000;stroke-width:3.719;stroke-miterlimit:10;}
	.st14{fill:#FFFFFF;stroke:#000000;stroke-width:3.719;stroke-miterlimit:10;}
	.st15{fill:none;stroke:#000000;stroke-width:3.719;stroke-linecap:round;stroke-miterlimit:10;}
	.st16{fill:#FFFFFF;stroke:#000000;stroke-width:3.8852;stroke-miterlimit:10;}
	.st17{fill:none;stroke:#000000;stroke-width:3.8852;stroke-miterlimit:10;}
	.st18{fill:#FFFFFF;stroke:#000000;stroke-width:3.8852;stroke-linecap:round;stroke-miterlimit:10;}
	.st19{fill:none;stroke:#000000;stroke-width:3.8852;stroke-linecap:round;stroke-miterlimit:10;}
	.st20{fill:none;stroke:#000000;stroke-width:3.8852;stroke-linecap:round;stroke-linejoin:round;stroke-miterlimit:10;}
</style>
<g id="Layer_1">
</g>
<g id="Layer_2">
	<path class="st0" d="M69.6-1075.9v124.6c0,0-0.2,17-17.7,11.9c-12.6-3.7-14.4-12.3-14.4-12.3s-11.2-0.2-17.8-9.7
		c-6.2-8.9-0.3-18-0.3-18s-13.7-6.5-15.6-17.9c-1.9-11.4,5.8-18.6,5.8-18.6s-10-14.9-3.3-34.9c6.7-20,21.4-21.6,21.4-21.6
		s4.6-13.9,23.5-17.2S69.6-1075.9,69.6-1075.9z"/>
	<path class="st1" d="M75.7-1075.9v124.6c0,0,0.2,17,17.7,11.9c12.6-3.7,14.4-12.3,14.4-12.3s11.2-0.2,17.8-9.7
		c6.2-8.9,0.3-18,0.3-18s13.7-6.5,15.6-17.9c1.9-11.4-5.8-18.6-5.8-18.6s10-14.9,3.3-34.9c-6.7-20-21.4-21.6-21.4-21.6
		s-4.6-13.9-23.5-17.2S75.7-1075.9,75.7-1075.9z"/>
	<linearGradient id="SVGID_1_" gradientUnits="userSpaceOnUse" x1="103.6745" y1="-1056.6613" x2="285.9075" y2="-1056.6613">
		<stop  offset="0.2365" style="stop-color:#0D549D"/>
		<stop  offset="0.372" style="stop-color:#133C73"/>
		<stop  offset="0.5982" style="stop-color:#142042"/>
		<stop  offset="0.7102" style="stop-color:#131732"/>
	</linearGradient>
	<polyline class="st2" points="285.9,-1050.9 118.6,-1050.9 118.6,-1062.5 103.7,-1062.5 	"/>
	<linearGradient id="SVGID_2_" gradientUnits="userSpaceOnUse" x1="88.9306" y1="-1036.3297" x2="285.9075" y2="-1036.3297">
		<stop  offset="0.2365" style="stop-color:#0D549D"/>
		<stop  offset="0.372" style="stop-color:#133C73"/>
		<stop  offset="0.5982" style="stop-color:#142042"/>
		<stop  offset="0.7102" style="stop-color:#131732"/>
	</linearGradient>
	<polyline class="st3" points="285.9,-1029.9 114.2,-1029.9 89.8,-1042.9 	"/>
	<linearGradient id="SVGID_3_" gradientUnits="userSpaceOnUse" x1="94.222" y1="-1005.5247" x2="285.9075" y2="-1005.5247">
		<stop  offset="0.2365" style="stop-color:#0D549D"/>
		<stop  offset="0.372" style="stop-color:#133C73"/>
		<stop  offset="0.5982" style="stop-color:#142042"/>
		<stop  offset="0.7102" style="stop-color:#131732"/>
	</linearGradient>
	<polyline class="st4" points="285.9,-1009 115.4,-1009 115.4,-1002 94.2,-1002 	"/>
	<linearGradient id="SVGID_4_" gradientUnits="userSpaceOnUse" x1="104.6043" y1="-988.0918" x2="285.9075" y2="-988.0918">
		<stop  offset="0.2365" style="stop-color:#0D549D"/>
		<stop  offset="0.372" style="stop-color:#133C73"/>
		<stop  offset="0.5982" style="stop-color:#142042"/>
		<stop  offset="0.7102" style="stop-color:#131732"/>
	</linearGradient>
	<line class="st5" x1="285.9" y1="-988.1" x2="104.6" y2="-988.1"/>
	<linearGradient id="SVGID_5_" gradientUnits="userSpaceOnUse" x1="89.1084" y1="-964.4993" x2="285.9075" y2="-964.4993">
		<stop  offset="0.2365" style="stop-color:#0D549D"/>
		<stop  offset="0.372" style="stop-color:#133C73"/>
		<stop  offset="0.5982" style="stop-color:#142042"/>
		<stop  offset="0.7102" style="stop-color:#131732"/>
	</linearGradient>
	<polyline class="st6" points="285.9,-967.2 119.3,-967.2 106.8,-961.8 89.1,-961.8 	"/>
	<circle class="st7" cx="89.8" cy="-961.8" r="5.1"/>
	<circle class="st7" cx="104.6" cy="-988.1" r="5.1"/>
	<circle class="st7" cx="93.3" cy="-1002" r="5.1"/>
	<circle class="st7" cx="88.9" cy="-1042.9" r="5.1"/>
	<circle class="st7" cx="101.1" cy="-1062.5" r="5.1"/>
	<g>
		<circle class="st8" cx="243.4" cy="-1019.4" r="7.2"/>
		<line class="st9" x1="236.2" y1="-977.5" x2="236.2" y2="-1019.6"/>
	</g>
	<g>
		<circle class="st8" cx="202.6" cy="-988.1" r="7.2"/>
		<circle class="st8" cx="176.3" cy="-967.4" r="7.2"/>
		<line class="st8" x1="209.8" y1="-988.1" x2="209.8" y2="-1030.1"/>
		<polyline class="st9" points="209.8,-1029.9 183.4,-1009.2 183.4,-967.2 		"/>
	</g>
	<g>
		<rect x="21.5" y="-1070.9" class="st10" width="43.7" height="109"/>
		<path class="st11" d="M47.9-1046.8h-8.5l-1.7,5.9h-5.8l9.3-28.4h5l9.1,28.4h-5.8L47.9-1046.8z M40.7-1051.5h5.9l-2.9-10.5
			L40.7-1051.5z"/>
		<path class="st11" d="M35.2-1032.1h16.4v4.4h-5.5v19.6h5.5v4.4H35.2v-4.4h5.4v-19.6h-5.4V-1032.1z"/>
		<path class="st11" d="M40.7-994.9l2.7,10.7l3.1-10.7h6.8v28.4h-5v-8.4l0.2-13.3l-3.7,12.3H42l-3.3-11.8l0.2,12.8v8.4h-5v-28.4
			H40.7z"/>
	</g>
	<g>
		<path d="M69.6,18.5v124.6c0,0-0.2,17-17.7,11.9c-12.6-3.7-14.4-12.3-14.4-12.3s-11.2-0.2-17.8-9.7c-6.2-8.9-0.3-18-0.3-18
			S5.7,108.5,3.8,97.1s5.8-18.6,5.8-18.6s-10-14.9-3.3-34.9S27.7,22,27.7,22S32.4,8.1,51.2,4.8S69.6,18.5,69.6,18.5z"/>
		<path d="M58,157.8c-2,0-4.2-0.3-6.6-1c-10.6-3.1-14.2-9.5-15.3-12.3c-3.4-0.4-12.2-2.1-18-10.4c-5.2-7.5-2.8-14.9-1.3-18.3
			c-3.9-2.2-13.3-8.6-14.9-18.4c-1.6-9.7,3.1-16.6,5.3-19.1C5,74.1-1.3,60.5,4.6,43.1c6-17.8,18-21.8,21.8-22.7
			C27.9,16.9,34.1,5.9,50.9,3c6.5-1.1,11.7-0.1,15.3,3c5.3,4.6,5.3,11.9,5.2,12.5v124.6c0,0.4-0.1,8.2-5.7,12.3
			C63.6,157,61,157.8,58,157.8z M55.7,6.3c-1.3,0-2.7,0.1-4.2,0.4c-17.5,3-22,15.8-22,16l-0.4,1.1L28,23.9
			c-0.5,0.1-13.6,1.8-19.8,20.4c-6.4,18.9,2.9,33.1,3,33.2l0.9,1.3l-1.2,1.1c-0.3,0.3-6.9,6.7-5.2,16.9
			c1.7,10.3,14.4,16.5,14.5,16.5l1.9,0.9l-1.2,1.8c-0.2,0.3-5.1,8.2,0.3,15.9c6,8.6,16.2,8.9,16.3,8.9l1.5,0l0.3,1.5
			c0.1,0.3,1.8,7.6,13.1,10.9c4.8,1.4,8.5,1.2,11.1-0.7c4.1-3,4.2-9.3,4.2-9.4l0-124.6c0-0.2,0.1-6.2-4-9.7
			C61.8,7.1,59.1,6.3,55.7,6.3z"/>
	</g>
	<path d="M87.3,157.8c-3,0-5.6-0.8-7.8-2.4c-5.6-4.1-5.7-12-5.7-12.3V18.6c0-0.6,0-8,5.2-12.5c3.6-3.1,8.8-4.2,15.3-3
		c16.8,2.9,23,13.9,24.5,17.4c3.8,0.8,15.8,4.8,21.8,22.7c5.9,17.5-0.4,31.1-2.7,35.2c2.2,2.6,6.9,9.4,5.3,19.1
		c-1.6,9.8-11,16.1-14.9,18.4c1.5,3.3,3.9,10.8-1.3,18.3c-5.7,8.2-14.6,10-18,10.4c-1.1,2.8-4.7,9.2-15.3,12.3
		C91.5,157.5,89.3,157.8,87.3,157.8z M89.6,6.3c-3.3,0-6,0.9-8,2.6c-4.1,3.5-4,9.6-4,9.7l0,0v124.6c0,0,0.1,6.3,4.2,9.3
		c2.6,1.9,6.3,2.1,11.1,0.7c11.3-3.3,13-10.6,13.1-10.9l0.3-1.4l1.5,0c0.1,0,10.4-0.4,16.3-8.9c5.4-7.7,0.5-15.6,0.3-15.9l-1.1-1.8
		l1.9-0.9c0.1-0.1,12.9-6.2,14.5-16.5c1.7-10.2-5-16.7-5.3-16.9l-1.1-1.1l0.9-1.3c0.1-0.1,9.4-14.4,3-33.2
		c-6.3-18.7-19.7-20.3-19.8-20.4l-1.2-0.1l-0.4-1.1c-0.2-0.5-4.6-12.9-22-16C92.3,6.4,90.9,6.3,89.6,6.3z"/>
	<polygon points="285.9,45.4 116.7,45.4 116.7,33.8 103.7,33.8 103.7,30.1 120.4,30.1 120.4,41.7 285.9,41.7 	"/>
	<polygon points="285.9,66.3 113.7,66.3 88.9,53.1 90.7,49.8 114.7,62.6 285.9,62.6 	"/>
	<polygon points="117.2,94.2 94.2,94.2 94.2,90.5 113.5,90.5 113.5,83.5 285.9,83.5 285.9,87.3 117.2,87.3 	"/>
	<rect x="104.6" y="104.5" width="181.3" height="3.7"/>
	<polygon points="107.2,134.5 89.1,134.5 89.1,130.7 106.4,130.7 118.9,125.4 285.9,125.4 285.9,129.1 119.7,129.1 	"/>
	<g>
		<circle class="st11" cx="89.8" cy="132.6" r="5.1"/>
		<path d="M89.8,139.6c-3.8,0-7-3.1-7-7c0-3.8,3.1-7,7-7c3.8,0,7,3.1,7,7C96.8,136.4,93.7,139.6,89.8,139.6z M89.8,129.3
			c-1.8,0-3.3,1.5-3.3,3.3c0,1.8,1.5,3.3,3.3,3.3c1.8,0,3.3-1.5,3.3-3.3C93.1,130.8,91.6,129.3,89.8,129.3z"/>
	</g>
	<g>
		<circle class="st11" cx="104.6" cy="106.3" r="5.1"/>
		<path d="M104.6,113.3c-0.3,0-0.6,0-0.9-0.1c-1.8-0.2-3.5-1.2-4.6-2.7c-1.1-1.5-1.6-3.3-1.4-5.2c0.5-3.8,4-6.5,7.8-6
			c1.8,0.2,3.5,1.2,4.6,2.7c1.1,1.5,1.6,3.3,1.4,5.2C111.1,110.7,108.1,113.3,104.6,113.3z M104.6,103.1c-1.6,0-3,1.2-3.2,2.8l0,0
			c-0.1,0.9,0.1,1.7,0.6,2.4s1.3,1.1,2.2,1.2c1.8,0.2,3.4-1,3.6-2.8c0.2-1.8-1-3.4-2.8-3.6C104.9,103.1,104.7,103.1,104.6,103.1z"/>
	</g>
	<g>
		<circle class="st11" cx="93.3" cy="92.4" r="5.1"/>
		<path d="M93.3,99.4c-0.3,0-0.6,0-0.9-0.1c-1.8-0.2-3.5-1.2-4.6-2.7c-1.1-1.5-1.6-3.3-1.4-5.2c0.5-3.8,4-6.5,7.8-6
			c3.8,0.5,6.5,4,6,7.8C99.8,96.8,96.7,99.4,93.3,99.4z M93.3,89.1c-1.6,0-3,1.2-3.2,2.8l0,0c-0.1,0.9,0.1,1.7,0.6,2.4
			s1.3,1.1,2.2,1.2c1.8,0.2,3.4-1,3.6-2.8c0.2-1.8-1-3.4-2.8-3.6C93.6,89.1,93.4,89.1,93.3,89.1z"/>
	</g>
	<g>
		<circle class="st11" cx="88.9" cy="51.5" r="5.1"/>
		<path d="M88.9,58.4c-0.3,0-0.6,0-0.9-0.1c-3.8-0.5-6.5-4-6-7.8c0.2-1.8,1.2-3.5,2.7-4.6c1.5-1.1,3.3-1.6,5.2-1.4
			c3.8,0.5,6.5,4,6,7.8C95.3,55.9,92.3,58.4,88.9,58.4z M88.9,48.2c-0.7,0-1.4,0.2-2,0.7c-0.7,0.5-1.1,1.3-1.2,2.2
			c-0.2,1.8,1,3.4,2.8,3.6c1.8,0.2,3.4-1,3.6-2.8c0.2-1.8-1-3.4-2.8-3.6C89.2,48.2,89,48.2,88.9,48.2z"/>
	</g>
	<g>
		<circle class="st11" cx="101.1" cy="31.9" r="5.1"/>
		<path d="M101.1,38.9c-0.3,0-0.6,0-0.9-0.1c-3.8-0.5-6.5-4-6-7.8c0.2-1.8,1.2-3.5,2.7-4.6c1.5-1.1,3.3-1.6,5.2-1.4
			c1.8,0.2,3.5,1.2,4.6,2.7c1.1,1.5,1.6,3.3,1.4,5.2C107.6,36.4,104.6,38.9,101.1,38.9z M101.1,28.7c-0.7,0-1.4,0.2-2,0.7
			c-0.7,0.5-1.1,1.3-1.2,2.2c-0.2,1.8,1,3.4,2.8,3.6c1.8,0.2,3.4-1,3.6-2.8c0.1-0.9-0.1-1.7-0.7-2.4s-1.3-1.1-2.2-1.2
			C101.4,28.7,101.2,28.7,101.1,28.7z"/>
	</g>
	<g>
		<circle cx="243.4" cy="75" r="7.2"/>
		<path d="M243.4,84c-5,0-9-4-9-9s4-9,9-9c5,0,9,4,9,9S248.3,84,243.4,84z M243.4,69.7c-2.9,0-5.3,2.4-5.3,5.3s2.4,5.3,5.3,5.3
			s5.3-2.4,5.3-5.3S246.3,69.7,243.4,69.7z"/>
	</g>
	<path d="M236.2,118.8c-1,0-1.9-0.8-1.9-1.9V74.9c0-1,0.8-1.9,1.9-1.9s1.9,0.8,1.9,1.9v42.1C238.1,118,237.2,118.8,236.2,118.8z"/>
	<g>
		<circle cx="202.6" cy="106.3" r="7.2"/>
		<path d="M202.6,115.4c-5,0-9-4-9-9s4-9,9-9c5,0,9,4,9,9S207.6,115.4,202.6,115.4z M202.6,101.1c-2.9,0-5.3,2.4-5.3,5.3
			s2.4,5.3,5.3,5.3s5.3-2.4,5.3-5.3S205.5,101.1,202.6,101.1z"/>
	</g>
	<g>
		<circle cx="176.3" cy="127" r="7.2"/>
		<path d="M176.3,136c-5,0-9-4-9-9c0-5,4-9,9-9c5,0,9,4,9,9C185.3,132,181.2,136,176.3,136z M176.3,121.7c-2.9,0-5.3,2.4-5.3,5.3
			c0,2.9,2.4,5.3,5.3,5.3s5.3-2.4,5.3-5.3C181.6,124.1,179.2,121.7,176.3,121.7z"/>
	</g>
	<rect x="207.9" y="64.3" width="3.7" height="42.1"/>
	<path d="M183.4,129.1c-1,0-1.9-0.8-1.9-1.9v-43L208.6,63c0.8-0.6,2-0.5,2.6,0.3c0.6,0.8,0.5,2-0.3,2.6l-25.6,20.1v41.2
		C185.3,128.3,184.5,129.1,183.4,129.1z"/>
	<g>
		<path class="st11" d="M47.9,47.6h-8.5l-1.7,5.9h-5.8l9.3-28.4h5l9.1,28.4h-5.8L47.9,47.6z M40.7,42.9h5.9l-2.9-10.5L40.7,42.9z"/>
		<path class="st11" d="M35.2,62.3h16.4v4.4h-5.5v19.6h5.5v4.4H35.2v-4.4h5.4V66.7h-5.4V62.3z"/>
		<path class="st11" d="M40.7,99.5l2.7,10.7l3.1-10.7h6.8v28.4h-5v-8.4l0.2-13.3l-3.7,12.3H42l-3.3-11.8l0.2,12.8v8.4h-5V99.5H40.7z
			"/>
	</g>
	<path class="st12" d="M69.6-537.9v124.6c0,0-0.2,17-17.7,11.9c-12.6-3.7-14.4-12.3-14.4-12.3s-11.2-0.2-17.8-9.7
		c-6.2-8.9-0.3-18-0.3-18S5.7-448,3.8-459.4S9.6-478,9.6-478s-10-14.9-3.3-34.9c6.7-20,21.4-21.6,21.4-21.6s4.6-13.9,23.5-17.2
		S69.6-537.9,69.6-537.9z"/>
	<path class="st13" d="M75.7-537.9v124.6c0,0,0.2,17,17.7,11.9c12.6-3.7,14.4-12.3,14.4-12.3s11.2-0.2,17.8-9.7
		c6.2-8.9,0.3-18,0.3-18s13.7-6.5,15.6-17.9s-5.8-18.6-5.8-18.6s10-14.9,3.3-34.9c-6.7-20-21.4-21.6-21.4-21.6s-4.6-13.9-23.5-17.2
		S75.7-537.9,75.7-537.9z"/>
	<polyline class="st13" points="285.9,-512.9 118.6,-512.9 118.6,-524.5 103.7,-524.5 	"/>
	<polyline class="st13" points="285.9,-492 114.2,-492 89.8,-505 	"/>
	<polyline class="st13" points="285.9,-471.1 115.4,-471.1 115.4,-464.1 94.2,-464.1 	"/>
	<line class="st13" x1="285.9" y1="-450.1" x2="104.6" y2="-450.1"/>
	<polyline class="st13" points="285.9,-429.2 119.3,-429.2 106.8,-423.9 89.1,-423.9 	"/>
	<circle class="st14" cx="89.8" cy="-423.9" r="5.1"/>
	<circle class="st14" cx="104.6" cy="-450.1" r="5.1"/>
	<circle class="st14" cx="93.3" cy="-464.1" r="5.1"/>
	<circle class="st14" cx="88.9" cy="-505" r="5.1"/>
	<circle class="st14" cx="101.1" cy="-524.5" r="5.1"/>
	<circle class="st12" cx="243.4" cy="-481.5" r="7.2"/>
	<line class="st15" x1="236.2" y1="-439.5" x2="236.2" y2="-481.6"/>
	<circle class="st12" cx="202.6" cy="-450.1" r="7.2"/>
	<circle class="st12" cx="176.3" cy="-429.5" r="7.2"/>
	<line class="st13" x1="209.8" y1="-450.1" x2="209.8" y2="-492.2"/>
	<polyline class="st15" points="209.8,-492 183.4,-471.3 183.4,-429.2 	"/>
	<g>
		<rect x="21.5" y="-532.9" class="st10" width="43.7" height="109"/>
		<path class="st11" d="M47.9-508.9h-8.5l-1.7,5.9h-5.8l9.3-28.4h5l9.1,28.4h-5.8L47.9-508.9z M40.7-513.5h5.9L43.7-524L40.7-513.5z
			"/>
		<path class="st11" d="M35.2-494.2h16.4v4.4h-5.5v19.6h5.5v4.4H35.2v-4.4h5.4v-19.6h-5.4V-494.2z"/>
		<path class="st11" d="M40.7-457l2.7,10.7l3.1-10.7h6.8v28.4h-5v-8.4l0.2-13.3l-3.7,12.3H42l-3.3-11.8l0.2,12.8v8.4h-5V-457H40.7z"
			/>
	</g>
	<path class="st12" d="M69.6-1628.4v124.6c0,0-0.2,17-17.7,11.9c-12.6-3.7-14.4-12.3-14.4-12.3s-11.2-0.2-17.8-9.7
		c-6.2-8.9-0.3-18-0.3-18s-13.7-6.5-15.6-17.9c-1.9-11.4,5.8-18.6,5.8-18.6s-10-14.9-3.3-34.9s21.4-21.6,21.4-21.6
		s4.6-13.9,23.5-17.2S69.6-1628.4,69.6-1628.4z"/>
	<path class="st13" d="M75.7-1628.4v124.6c0,0,0.2,17,17.7,11.9c12.6-3.7,14.4-12.3,14.4-12.3s11.2-0.2,17.8-9.7
		c6.2-8.9,0.3-18,0.3-18s13.7-6.5,15.6-17.9c1.9-11.4-5.8-18.6-5.8-18.6s10-14.9,3.3-34.9s-21.4-21.6-21.4-21.6s-4.6-13.9-23.5-17.2
		S75.7-1628.4,75.7-1628.4z"/>
	<polyline class="st13" points="285.9,-1603.4 118.6,-1603.4 118.6,-1615 103.7,-1615 	"/>
	<polyline class="st13" points="285.9,-1582.4 114.2,-1582.4 89.8,-1595.4 	"/>
	<polyline class="st13" points="285.9,-1561.5 115.4,-1561.5 115.4,-1554.5 94.2,-1554.5 	"/>
	<line class="st13" x1="285.9" y1="-1540.6" x2="104.6" y2="-1540.6"/>
	<polyline class="st13" points="285.9,-1519.7 119.3,-1519.7 106.8,-1514.3 89.1,-1514.3 	"/>
	<circle class="st14" cx="89.8" cy="-1514.3" r="5.1"/>
	<circle class="st14" cx="104.6" cy="-1540.6" r="5.1"/>
	<circle class="st14" cx="93.3" cy="-1554.5" r="5.1"/>
	<circle class="st14" cx="88.9" cy="-1595.4" r="5.1"/>
	<circle class="st14" cx="101.1" cy="-1615" r="5.1"/>
	<g>
		<circle class="st13" cx="243.4" cy="-1571.9" r="7.2"/>
		<line class="st15" x1="236.2" y1="-1530" x2="236.2" y2="-1572.1"/>
	</g>
	<g>
		<circle class="st13" cx="202.6" cy="-1540.6" r="7.2"/>
		<circle class="st13" cx="176.3" cy="-1519.9" r="7.2"/>
		<line class="st13" x1="209.8" y1="-1540.6" x2="209.8" y2="-1582.6"/>
		<polyline class="st15" points="209.8,-1582.4 183.4,-1561.7 183.4,-1519.7 		"/>
	</g>
	<g>
		<rect x="21.5" y="-1623.4" class="st10" width="43.7" height="109"/>
		<path class="st11" d="M47.9-1599.3h-8.5l-1.7,5.9h-5.8l9.3-28.4h5l9.1,28.4h-5.8L47.9-1599.3z M40.7-1604h5.9l-2.9-10.5L40.7-1604
			z"/>
		<path class="st11" d="M35.2-1584.6h16.4v4.4h-5.5v19.6h5.5v4.4H35.2v-4.4h5.4v-19.6h-5.4V-1584.6z"/>
		<path class="st11" d="M40.7-1547.4l2.7,10.7l3.1-10.7h6.8v28.4h-5v-8.4l0.2-13.3l-3.7,12.3H42l-3.3-11.8l0.2,12.8v8.4h-5v-28.4
			H40.7z"/>
	</g>
	<g>
		<path class="st16" d="M1768.9-1621v130.2c0,0-0.2,17.8-18.5,12.4c-13.2-3.9-15.1-12.9-15.1-12.9s-11.7-0.2-18.6-10.1
			c-6.5-9.3-0.3-18.8-0.3-18.8s-14.3-6.8-16.3-18.7s6.1-19.4,6.1-19.4s-10.4-15.5-3.4-36.4c7-20.9,22.3-22.6,22.3-22.6
			s4.9-14.6,24.5-18C1769.3-1638.8,1768.9-1621,1768.9-1621z"/>
		<path class="st17" d="M1965.3-1621v130.2c0,0,0.2,17.8,18.5,12.4c13.2-3.9,15.1-12.9,15.1-12.9s11.7-0.2,18.6-10.1
			c6.5-9.3,0.3-18.8,0.3-18.8s14.3-6.8,16.3-18.7s-6.1-19.4-6.1-19.4s10.4-15.5,3.4-36.4c-7-20.9-22.3-22.6-22.3-22.6
			s-4.9-14.6-24.5-18C1964.8-1638.8,1965.3-1621,1965.3-1621z"/>
		<polyline class="st17" points="2160.5,-1594.9 2010,-1594.9 2010,-1607 1994.5,-1607 		"/>
		<polyline class="st17" points="2160.5,-1573 2005.5,-1573 1980,-1586.6 		"/>
		<polyline class="st17" points="2160.5,-1551.2 2006.7,-1551.2 2006.7,-1543.9 1984.6,-1543.9 		"/>
		<line class="st17" x1="2160.5" y1="-1529.3" x2="1995.4" y2="-1529.3"/>
		<polyline class="st17" points="2160.5,-1507.5 2010.8,-1507.5 1997.7,-1501.9 1979.3,-1501.9 		"/>
		<circle class="st16" cx="1980" cy="-1501.9" r="5.3"/>
		<circle class="st16" cx="1995.4" cy="-1529.3" r="5.3"/>
		<circle class="st16" cx="1983.6" cy="-1543.9" r="5.3"/>
		<circle class="st16" cx="1979" cy="-1586.6" r="5.3"/>
		<circle class="st16" cx="1991.8" cy="-1607" r="5.3"/>
		<circle class="st16" cx="1733.8" cy="-1563.8" r="5.3"/>
		<circle class="st16" cx="1736.7" cy="-1520.4" r="5.3"/>
		<circle class="st16" cx="1745.5" cy="-1543.7" r="5.3"/>
		<circle class="st16" cx="1747.9" cy="-1587.2" r="5.3"/>
		<circle class="st16" cx="1755.5" cy="-1607.5" r="5.3"/>
		<g>
			<circle class="st18" cx="2130.5" cy="-1584.1" r="7.5"/>
			<line class="st19" x1="2123" y1="-1540.2" x2="2123" y2="-1584.2"/>
		</g>
		<g>
			<circle class="st16" cx="2087.9" cy="-1540.1" r="7.5"/>
			<circle class="st16" cx="2060.4" cy="-1529.2" r="7.5"/>
			<line class="st17" x1="2095.4" y1="-1540.1" x2="2095.4" y2="-1584.1"/>
			<polyline class="st19" points="2095.4,-1584.1 2067.9,-1572.9 2067.9,-1528.9 			"/>
		</g>
		<g>
			<rect x="1759.7" y="-1579.1" class="st10" width="220.4" height="41.8"/>
			<path d="M1820.4-1554h-8.9l-1.8,6.2h-6l9.7-29.7h5.2l9.5,29.7h-6L1820.4-1554z M1812.9-1558.9h6.2l-3-10.9L1812.9-1558.9z"/>
			<path d="M1861.3-1577.5h17.2v4.6h-5.8v20.5h5.8v4.6h-17.2v-4.6h5.6v-20.5h-5.6V-1577.5z"/>
			<path d="M1921.4-1577.5l2.8,11.2l3.2-11.2h7.1v29.7h-5.3v-8.8l0.2-13.9l-3.9,12.9h-2.8l-3.5-12.3l0.2,13.3v8.8h-5.3v-29.7H1921.4
				z"/>
		</g>
		<polyline class="st20" points="1728.5,-1563.8 1716.8,-1563.8 1716.8,-1551.6 1682.6,-1551.6 1674.4,-1570.6 1666.1,-1512.7 
			1657.9,-1607.3 1649.7,-1539.9 1641.5,-1579 1633.3,-1510.2 1625.1,-1599.3 1616.9,-1528.9 1608.7,-1621.1 1600.5,-1494.2 
			1592.3,-1583.1 1584.1,-1521.7 1579.8,-1551.2 1565.4,-1551.2 		"/>
		<polyline class="st17" points="1710.6,-1608.8 1726.5,-1587.2 1743.1,-1587.2 		"/>
		<polyline class="st17" points="1750.6,-1479.7 1750.6,-1497.8 1737.1,-1504.2 1737.1,-1517 		"/>
		<polyline class="st17" points="1768.9,-1621 1755.5,-1621 1755.5,-1611.3 		"/>
		<line class="st17" x1="1767.9" y1="-1543.7" x2="1749.2" y2="-1543.7"/>
	</g>
	<g>
		<path class="st16" d="M1228.9-1621v130.2c0,0-0.2,17.8-18.5,12.4c-13.2-3.9-15.1-12.9-15.1-12.9s-11.7-0.2-18.6-10.1
			c-6.5-9.3-0.3-18.8-0.3-18.8s-14.3-6.8-16.3-18.7s6.1-19.4,6.1-19.4s-10.4-15.5-3.4-36.4c7-20.9,22.3-22.6,22.3-22.6
			s4.9-14.6,24.5-18C1229.4-1638.8,1228.9-1621,1228.9-1621z"/>
		<path class="st17" d="M1235.3-1621v130.2c0,0,0.2,17.8,18.5,12.4c13.2-3.9,15.1-12.9,15.1-12.9s11.7-0.2,18.6-10.1
			c6.5-9.3,0.3-18.8,0.3-18.8s14.3-6.8,16.3-18.7s-6.1-19.4-6.1-19.4s10.4-15.5,3.4-36.4c-7-20.9-22.3-22.6-22.3-22.6
			s-4.9-14.6-24.5-18C1234.8-1638.8,1235.3-1621,1235.3-1621z"/>
		<polyline class="st17" points="1430.6,-1594.9 1280,-1594.9 1280,-1607 1264.5,-1607 		"/>
		<polyline class="st17" points="1430.6,-1573 1275.5,-1573 1250,-1586.6 		"/>
		<polyline class="st17" points="1430.6,-1551.2 1276.7,-1551.2 1276.7,-1543.9 1254.6,-1543.9 		"/>
		<line class="st17" x1="1430.6" y1="-1529.3" x2="1265.5" y2="-1529.3"/>
		<polyline class="st17" points="1430.6,-1507.5 1280.9,-1507.5 1267.7,-1501.9 1249.3,-1501.9 		"/>
		<circle class="st16" cx="1250" cy="-1501.9" r="5.3"/>
		<circle class="st16" cx="1265.5" cy="-1529.3" r="5.3"/>
		<circle class="st16" cx="1253.7" cy="-1543.9" r="5.3"/>
		<circle class="st16" cx="1249" cy="-1586.6" r="5.3"/>
		<circle class="st16" cx="1261.8" cy="-1607" r="5.3"/>
		<circle class="st16" cx="1193.9" cy="-1563.8" r="5.3"/>
		<circle class="st16" cx="1196.7" cy="-1520.4" r="5.3"/>
		<circle class="st16" cx="1205.5" cy="-1543.7" r="5.3"/>
		<circle class="st16" cx="1207.9" cy="-1587.2" r="5.3"/>
		<circle class="st16" cx="1215.5" cy="-1607.5" r="5.3"/>
		<g>
			<circle class="st18" cx="1400.5" cy="-1584.1" r="7.5"/>
			<line class="st19" x1="1393" y1="-1540.2" x2="1393" y2="-1584.2"/>
		</g>
		<g>
			<circle class="st16" cx="1357.9" cy="-1540.1" r="7.5"/>
			<circle class="st16" cx="1330.4" cy="-1529.2" r="7.5"/>
			<line class="st17" x1="1365.4" y1="-1540.1" x2="1365.4" y2="-1584.1"/>
			<polyline class="st19" points="1365.4,-1584.1 1337.9,-1572.9 1337.9,-1528.9 			"/>
		</g>
		<g>
			<rect x="1122.6" y="-1687.9" class="st10" width="220.4" height="41.8"/>
			<path d="M1183.2-1662.8h-8.9l-1.8,6.2h-6l9.7-29.7h5.2l9.5,29.7h-6L1183.2-1662.8z M1175.7-1667.6h6.2l-3-10.9L1175.7-1667.6z"/>
			<path d="M1224.1-1686.3h17.2v4.6h-5.8v20.5h5.8v4.6h-17.2v-4.6h5.6v-20.5h-5.6V-1686.3z"/>
			<path d="M1284.2-1686.3l2.8,11.2l3.2-11.2h7.1v29.7h-5.3v-8.8l0.2-13.9l-3.9,12.9h-2.8l-3.5-12.3l0.2,13.3v8.8h-5.3v-29.7H1284.2
				z"/>
		</g>
		<polyline class="st20" points="1188.5,-1563.8 1176.8,-1563.8 1176.8,-1551.6 1142.6,-1551.6 1134.4,-1570.6 1126.2,-1512.7 
			1118,-1607.3 1109.8,-1539.9 1101.5,-1579 1093.3,-1510.2 1085.1,-1599.3 1076.9,-1528.9 1068.7,-1621.1 1060.5,-1494.2 
			1052.3,-1583.1 1044.1,-1521.7 1039.8,-1551.2 1025.4,-1551.2 		"/>
		<polyline class="st17" points="1170.7,-1608.8 1186.5,-1587.2 1203.1,-1587.2 		"/>
		<polyline class="st17" points="1210.6,-1479.7 1210.6,-1497.8 1197.1,-1504.2 1197.1,-1517 		"/>
		<polyline class="st17" points="1228.9,-1621 1215.5,-1621 1215.5,-1611.3 		"/>
		<line class="st17" x1="1227.9" y1="-1543.7" x2="1209.2" y2="-1543.7"/>
	</g>
</g>
<g id="Layer_3">
	<g>
		<path class="st14" d="M606-1628.5v124.6c0,0,0.2,17,17.7,11.9c12.6-3.7,14.4-12.3,14.4-12.3s11.2-0.2,17.8-9.7
			c6.2-8.9,0.3-18,0.3-18s13.7-6.5,15.6-17.9s-5.8-18.6-5.8-18.6s10-14.9,3.3-34.9s-21.4-21.6-21.4-21.6s-4.6-13.9-23.5-17.2
			C605.6-1645.5,606-1628.5,606-1628.5z"/>
		<polyline class="st13" points="815.9,-1603.5 648.6,-1603.5 648.6,-1615.1 633.7,-1615.1 		"/>
		<polyline class="st13" points="815.9,-1582.6 644.2,-1582.6 619.8,-1595.6 		"/>
		<polyline class="st13" points="815.9,-1561.7 645.4,-1561.7 645.4,-1554.7 624.2,-1554.7 		"/>
		<line class="st13" x1="815.9" y1="-1540.8" x2="634.6" y2="-1540.8"/>
		<polyline class="st13" points="815.9,-1519.8 649.3,-1519.8 636.8,-1514.5 619.1,-1514.5 		"/>
		<circle class="st14" cx="619.8" cy="-1514.5" r="5.1"/>
		<circle class="st14" cx="634.6" cy="-1540.8" r="5.1"/>
		<circle class="st14" cx="623.3" cy="-1554.7" r="5.1"/>
		<circle class="st14" cx="618.9" cy="-1595.6" r="5.1"/>
		<circle class="st14" cx="631.1" cy="-1615.1" r="5.1"/>
		<g>
			<circle class="st14" cx="777.4" cy="-1582.6" r="7.2"/>
			<line class="st13" x1="770.2" y1="-1540.6" x2="770.2" y2="-1582.7"/>
		</g>
		<g>
			<circle class="st14" cx="736.6" cy="-1540.5" r="7.2"/>
			<circle class="st14" cx="710.3" cy="-1530.1" r="7.2"/>
			<line class="st13" x1="743.8" y1="-1540.5" x2="743.8" y2="-1582.6"/>
			<polyline class="st15" points="743.8,-1582.6 717.4,-1571.9 717.4,-1529.8 			"/>
		</g>
		<g>
			<rect x="556.6" y="-1620.1" class="st10" width="43.7" height="109"/>
			<path d="M583-1596.1h-8.5l-1.7,5.9h-5.8l9.3-28.4h5l9.1,28.4h-5.8L583-1596.1z M575.9-1600.7h5.9l-2.9-10.5L575.9-1600.7z"/>
			<path d="M570.3-1581.4h16.4v4.4h-5.5v19.6h5.5v4.4h-16.4v-4.4h5.4v-19.6h-5.4V-1581.4z"/>
			<path d="M575.8-1544.2l2.7,10.7l3.1-10.7h6.8v28.4h-5v-8.4l0.2-13.3l-3.7,12.3h-2.7l-3.3-11.8l0.2,12.8v8.4h-5v-28.4H575.8z"/>
		</g>
	</g>
	<g>
	</g>
	<g>
	</g>
	<g>
	</g>
	<g>
	</g>
	<g>
	</g>
	<g>
	</g>
</g>
</svg>
